Coordinates
version=1
nRows=26
nColumns=24
inDegrees=yes

Units are S.I. units (second, meters, Newtons, ...)
Angles are in degrees.

endheader
time	pelvis_tilt	pelvis_list	pelvis_rotation	pelvis_tx	pelvis_ty	pelvis_tz	hip_flexion_r	hip_adduction_r	hip_rotation_r	knee_angle_r	ankle_angle_r	subtalar_angle_r	mtp_angle_r	hip_flexion_l	hip_adduction_l	hip_rotation_l	knee_angle_l	ankle_angle_l	subtalar_angle_l	mtp_angle_l	lumbar_extension	lumbar_bending	lumbar_rotation
      3.21500000	     -1.00096385	     -4.97873565	     -0.12339231	     -1.33142984	      0.94007676	      0.25686269	     13.34035701	     12.08096282	      5.22777078	    -22.77909320	     15.59116367	    -10.25418032	      0.00000000	     24.10298747	     -5.92192356	     -4.01884840	    -70.18786294	     10.84422775	    -14.02320236	      0.00000000	     -8.02737412	      6.46957756	     -6.50350413
      3.22000000	     -1.00293541	     -4.79890665	     -0.25991915	     -1.32504848	      0.94110814	      0.25734201	     12.63592209	     11.91912187	      5.40685154	    -22.30991734	     15.76421450	    -10.19677696	      0.00000000	     24.69495757	     -5.70847387	     -4.11744694	    -69.42640039	     11.36415125	    -13.45047397	      0.00000000	     -8.05458486	      6.22909406	     -6.32714805
      3.22500000	     -0.92533237	     -4.64833550	     -0.45042769	     -1.31869302	      0.94219671	      0.25788669	     11.83002994	     11.80389257	      5.72541208	    -21.81999880	     15.88692479	    -10.17617067	      0.00000000	     25.15259848	     -5.54653204	     -4.26269019	    -68.57059435	     11.87026262	    -12.90618477	      0.00000000	     -8.19794775	      6.01142580	     -6.01383215
      3.23000000	     -0.90099360	     -4.48019891	     -0.61987550	     -1.31233995	      0.94316004	      0.25839743	     11.10033761	     11.65706843	      5.97174841	    -21.34862582	     15.99084307	    -10.16849013	      0.00000000	     25.63767656	     -5.35434372	     -4.40345363	    -67.61806968	     12.31108406	    -12.43646826	      0.00000000	     -8.26744817	      5.77944082	     -5.81108861
      3.23500000	     -0.91294833	     -4.31856314	     -0.76177383	     -1.30598116	      0.94397104	      0.25886481	     10.41945750	     11.50770830	      6.16796257	    -20.88227739	     16.13351515	    -10.17027380	      0.00000000	     26.14702493	     -5.15644066	     -4.52270356	    -66.60073162	     12.66578340	    -12.02355024	      0.00000000	     -8.28478392	      5.55972959	     -5.64138330
      3.24000000	     -0.84069050	     -4.17753250	     -0.96943721	     -1.29966408	      0.94483843	      0.25942135	      9.64045418	     11.39556498	      6.50863790	    -20.40940456	     16.21200793	    -10.22550797	      0.00000000	     26.51005298	     -5.00348065	     -4.70103640	    -65.48139450	     13.01552970	    -11.69013765	      0.00000000	     -8.42860815	      5.34524201	     -5.32457001
      3.24500000	     -0.83025788	     -4.04212598	     -1.14934205	     -1.29334315	      0.94552445	      0.25991074	      8.95595566	     11.27515933	      6.75644317	    -19.97224263	     16.30317253	    -10.26928251	      0.00000000	     26.91673411	     -4.83676819	     -4.84712675	    -64.28812747	     13.33230072	    -11.39689059	      0.00000000	     -8.48658713	      5.15115310	     -5.10132569
      3.25000000	     -0.82252427	     -3.91698077	     -1.32948667	     -1.28701262	      0.94611499	      0.26039823	      8.28176304	     11.16345908	      6.99810930	    -19.54379725	     16.39896720	    -10.33333467	      0.00000000	     27.29622801	     -4.67946136	     -4.99318842	    -63.02100668	     13.59875476	    -11.15317447	      0.00000000	     -8.53812465	      4.96777368	     -4.87347346
      3.25500000	     -0.86928541	     -3.80480170	     -1.47734404	     -1.28069086	      0.94652461	      0.26083799	      7.69995188	     11.05684770	      7.14568269	    -19.16241836	     16.49721540	    -10.38005887	      0.00000000	     27.70928809	     -4.50968947	     -5.08295488	    -61.68157993	     13.86782466	    -10.92655265	      0.00000000	     -8.51922045	      4.80143935	     -4.73126328
      3.26000000	     -0.81495639	     -3.70543069	     -1.69694740	     -1.27437226	      0.94700331	      0.26133274	      6.98620534	     10.97364255	      7.46612336	    -18.75328183	     16.57144405	    -10.50550843	      0.00000000	     27.96521294	     -4.38965031	     -5.26250419	    -60.25977434	     14.06962824	    -10.77565496	      0.00000000	     -8.63879804	      4.64676232	     -4.41486733
      3.26500000	     -0.80923063	     -3.62156525	     -1.87642941	     -1.26803852	      0.94730643	      0.26178251	      6.34956603	     10.90091029	      7.70632544	    -18.37935439	     16.64748181	    -10.64095355	      0.00000000	     28.24931903	     -4.25960920	     -5.37649513	    -58.77297935	     14.27898525	    -10.60540892	      0.00000000	     -8.68902282	      4.51251704	     -4.19855298
      3.27000000	     -0.80801583	     -3.55049015	     -2.05890444	     -1.26170475	      0.94750401	      0.26222047	      5.73380350	     10.84009060	      7.94062322	    -18.03364566	     16.73100292	    -10.78424515	      0.00000000	     28.50594538	     -4.13891287	     -5.47789007	    -57.21800030	     14.47467829	    -10.43986434	      0.00000000	     -8.73409464	      4.39182380	     -3.97843005
      3.27500000	     -0.80577467	     -3.49163428	     -2.24267679	     -1.25537393	      0.94760764	      0.26264579	      5.12860575	     10.79077628	      8.17732706	    -17.70883317	     16.81741430	    -10.94357204	      0.00000000	     28.72964892	     -4.02890591	     -5.56915055	    -55.59716448	     14.65851599	    -10.26654499	      0.00000000	     -8.78346596	      4.28743860	     -3.76222402
      3.28000000	     -0.88086703	     -3.44484629	     -2.37939134	     -1.24905448	      0.94748280	      0.26297816	      4.64592114	     10.74713330	      8.28698258	    -17.44325229	     16.94828177	    -11.05404751	      0.00000000	     29.01956396	     -3.89627996	     -5.56631256	    -53.92649082	     14.85555268	    -10.02626667	      0.00000000	     -8.73721812	      4.20689087	     -3.62505329
      3.28500000	     -0.81111057	     -3.40147529	     -2.60954294	     -1.24270474	      0.94753003	      0.26340900	      3.97356188	     10.71390336	      8.62999068	    -17.14370503	     17.02400777	    -11.27493592	      0.00000000	     29.08706794	     -3.82099258	     -5.69805366	    -52.15709195	     14.99589110	     -9.84444985	      0.00000000	     -8.87427541	      4.11895740	     -3.34065202
      3.29000000	     -0.80060532	     -3.37801339	     -2.78053966	     -1.23636043	      0.94737417	      0.26378349	      3.39306592	     10.70031375	      8.87210665	    -16.88400474	     17.11858313	    -11.49757791	      0.00000000	     29.20354011	     -3.73278081	     -5.72508131	    -50.34521133	     15.15658616	     -9.57280395	      0.00000000	     -8.93131490	      4.05231937	     -3.14609846
      3.29500000	     -0.89022804	     -3.36903283	     -2.91040331	     -1.23004483	      0.94696048	      0.26407158	      2.96884257	     10.69736644	      8.95705878	    -16.69987756	     17.27979976	    -11.62545240	      0.00000000	     29.41359717	     -3.63117448	     -5.65741077	    -48.49490800	     15.31741723	     -9.22902923	      0.00000000	     -8.87324822	      4.01468783	     -3.02632254
      3.30000000	     -0.81235950	     -3.34791027	     -3.13166202	     -1.22368842	      0.94677066	      0.26443971	      2.32479284	     10.67889860	      9.27620862	    -16.47084764	     17.39387074	    -11.85363906	      0.00000000	     29.37038402	     -3.56722387	     -5.72619538	    -46.54163308	     15.42759322	     -8.91810634	      0.00000000	     -9.02380725	      3.95265461	     -2.76273834
      3.30500000	     -0.84265750	     -3.34650603	     -3.27469822	     -1.21732815	      0.94630526	      0.26471753	      1.83512623	     10.68241754	      9.43578270	    -16.29769383	     17.55100536	    -12.03628046	      0.00000000	     29.43632775	     -3.49146459	     -5.69157601	    -44.56165134	     15.55277293	     -8.51161837	      0.00000000	     -9.03387886	      3.92322756	     -2.63993278
      3.31000000	     -0.84942465	     -3.34785274	     -3.43920908	     -1.21099176	      0.94581221	      0.26499183	      1.33313578	     10.68552762	      9.61018525	    -16.15110165	     17.72473266	    -12.20772838	      0.00000000	     29.43730997	     -3.41897224	     -5.63007496	    -42.52245108	     15.63814281	     -8.08343194	      0.00000000	     -9.08406933	      3.89418666	     -2.46265174
      3.31500000	     -0.87225872	     -3.35730009	     -3.59380759	     -1.20465678	      0.94522079	      0.26525209	      0.86558252	     10.69685633	      9.75083940	    -16.03576339	     17.91868755	    -12.36092950	      0.00000000	     29.42534749	     -3.35305863	     -5.53477610	    -40.43840660	     15.69816599	     -7.62448380	      0.00000000	     -9.11616604	      3.87304858	     -2.31575807
      3.32000000	     -1.00102957	     -3.43176607	     -3.70375433	     -1.19838953	      0.94436192	      0.26539015	      0.54218705	     10.77773313	      9.78005666	    -15.96418095	     18.14114676	    -12.45947440	      0.00000000	     29.53101336	     -3.32088000	     -5.28953067	    -38.36137935	     15.73105673	     -7.14525880	      0.00000000	     -9.03905998	      3.95554021	     -2.15708305
      3.32500000	     -0.87565773	     -3.39342633	     -3.91447339	     -1.19203600	      0.94391191	      0.26571269	     -0.07316885	     10.72711840	     10.02498024	    -15.88900589	     18.36070498	    -12.60263462	      0.00000000	     29.25796659	     -3.23993501	     -5.26032679	    -36.13925561	     15.68503975	     -6.70370329	      0.00000000	     -9.25804248	      3.85305570	     -1.96860053
      3.33000000	     -0.88442595	     -3.41958309	     -4.04680624	     -1.18568837	      0.94314429	      0.26590856	     -0.52550919	     10.75020876	     10.14057049	    -15.83803554	     18.59674899	    -12.72500285	      0.00000000	     29.14323014	     -3.18915068	     -5.07739403	    -33.94792929	     15.62744563	     -6.24704223	      0.00000000	     -9.31537461	      3.85380620	     -1.84529368
      3.33500000	     -0.91466123	     -3.44723607	     -4.18592962	     -1.17932182	      0.94228442	      0.26610141	     -0.94179010	     10.77306181	     10.24139630	    -15.81777827	     18.86592136	    -12.80431250	      0.00000000	     29.02682314	     -3.14995365	     -4.88720568	    -31.73911200	     15.52428232	     -5.83787320	      0.00000000	     -9.34386456	      3.85671158	     -1.72109928
      3.34000000	     -1.05078928	     -3.54258409	     -4.29009356	     -1.17301723	      0.94115976	      0.26627500	     -1.22133768	     10.88083127	     10.28626959	    -15.83805821	     19.13679570	    -12.87530029	      0.00000000	     29.04620997	     -3.18131352	     -4.59693945	    -29.59727777	     15.44520273	     -5.35370229	      0.00000000	     -9.26330698	      3.95272950	     -1.59814181
